<svg aria-roledescription="mindmap" role="graphics-document document" style="overflow: hidden; max-width: 100%;" xmlns="http://www.w3.org/2000/svg" width="100%" id="graph-div" height="100%" xmlns:xlink="http://www.w3.org/1999/xlink" xmlns:ev="http://www.w3.org/2001/xml-events"><style>@import url("https://cdnjs.cloudflare.com/ajax/libs/font-awesome/6.2.1/css/all.min.css");'</style><g id="viewport-20230225115338662" class="svg-pan-zoom_viewport" transform="matrix(0.8674359373890937,0,0,0.8674359373890937,-4.337179686945433,158.4446423809332)" style="transform: matrix(0.867436, 0, 0, 0.867436, -4.33718, 158.445);"><style>#graph-div{font-family:"trebuchet ms",verdana,arial,sans-serif;font-size:16px;fill:#ccc;}#graph-div .error-icon{fill:#a44141;}#graph-div .error-text{fill:#ddd;stroke:#ddd;}#graph-div .edge-thickness-normal{stroke-width:2px;}#graph-div .edge-thickness-thick{stroke-width:3.5px;}#graph-div .edge-pattern-solid{stroke-dasharray:0;}#graph-div .edge-pattern-dashed{stroke-dasharray:3;}#graph-div .edge-pattern-dotted{stroke-dasharray:2;}#graph-div .marker{fill:lightgrey;stroke:lightgrey;}#graph-div .marker.cross{stroke:lightgrey;}#graph-div svg{font-family:"trebuchet ms",verdana,arial,sans-serif;font-size:16px;}#graph-div .edge{stroke-width:3;}#graph-div .section--1 rect,#graph-div .section--1 path,#graph-div .section--1 circle,#graph-div .section--1 polygon,#graph-div .section--1 path{fill:#1f2020;}#graph-div .section--1 text{fill:lightgrey;}#graph-div .node-icon--1{font-size:40px;color:lightgrey;}#graph-div .section-edge--1{stroke:#1f2020;}#graph-div .edge-depth--1{stroke-width:17;}#graph-div .section--1 line{stroke:#e0dfdf;stroke-width:3;}#graph-div .disabled,#graph-div .disabled circle,#graph-div .disabled text{fill:lightgray;}#graph-div .disabled text{fill:#efefef;}#graph-div .section-0 rect,#graph-div .section-0 path,#graph-div .section-0 circle,#graph-div .section-0 polygon,#graph-div .section-0 path{fill:#0b0000;}#graph-div .section-0 text{fill:lightgrey;}#graph-div .node-icon-0{font-size:40px;color:lightgrey;}#graph-div .section-edge-0{stroke:#0b0000;}#graph-div .edge-depth-0{stroke-width:14;}#graph-div .section-0 line{stroke:#f4ffff;stroke-width:3;}#graph-div .disabled,#graph-div .disabled circle,#graph-div .disabled text{fill:lightgray;}#graph-div .disabled text{fill:#efefef;}#graph-div .section-1 rect,#graph-div .section-1 path,#graph-div .section-1 circle,#graph-div .section-1 polygon,#graph-div .section-1 path{fill:#4d1037;}#graph-div .section-1 text{fill:lightgrey;}#graph-div .node-icon-1{font-size:40px;color:lightgrey;}#graph-div .section-edge-1{stroke:#4d1037;}#graph-div .edge-depth-1{stroke-width:11;}#graph-div .section-1 line{stroke:#b2efc8;stroke-width:3;}#graph-div .disabled,#graph-div .disabled circle,#graph-div .disabled text{fill:lightgray;}#graph-div .disabled text{fill:#efefef;}#graph-div .section-2 rect,#graph-div .section-2 path,#graph-div .section-2 circle,#graph-div .section-2 polygon,#graph-div .section-2 path{fill:#3f5258;}#graph-div .section-2 text{fill:lightgrey;}#graph-div .node-icon-2{font-size:40px;color:lightgrey;}#graph-div .section-edge-2{stroke:#3f5258;}#graph-div .edge-depth-2{stroke-width:8;}#graph-div .section-2 line{stroke:#c0ada7;stroke-width:3;}#graph-div .disabled,#graph-div .disabled circle,#graph-div .disabled text{fill:lightgray;}#graph-div .disabled text{fill:#efefef;}#graph-div .section-3 rect,#graph-div .section-3 path,#graph-div .section-3 circle,#graph-div .section-3 polygon,#graph-div .section-3 path{fill:#4f2f1b;}#graph-div .section-3 text{fill:lightgrey;}#graph-div .node-icon-3{font-size:40px;color:lightgrey;}#graph-div .section-edge-3{stroke:#4f2f1b;}#graph-div .edge-depth-3{stroke-width:5;}#graph-div .section-3 line{stroke:#b0d0e4;stroke-width:3;}#graph-div .disabled,#graph-div .disabled circle,#graph-div .disabled text{fill:lightgray;}#graph-div .disabled text{fill:#efefef;}#graph-div .section-4 rect,#graph-div .section-4 path,#graph-div .section-4 circle,#graph-div .section-4 polygon,#graph-div .section-4 path{fill:#6e0a0a;}#graph-div .section-4 text{fill:lightgrey;}#graph-div .node-icon-4{font-size:40px;color:lightgrey;}#graph-div .section-edge-4{stroke:#6e0a0a;}#graph-div .edge-depth-4{stroke-width:2;}#graph-div .section-4 line{stroke:#91f5f5;stroke-width:3;}#graph-div .disabled,#graph-div .disabled circle,#graph-div .disabled text{fill:lightgray;}#graph-div .disabled text{fill:#efefef;}#graph-div .section-5 rect,#graph-div .section-5 path,#graph-div .section-5 circle,#graph-div .section-5 polygon,#graph-div .section-5 path{fill:#3b0048;}#graph-div .section-5 text{fill:lightgrey;}#graph-div .node-icon-5{font-size:40px;color:lightgrey;}#graph-div .section-edge-5{stroke:#3b0048;}#graph-div .edge-depth-5{stroke-width:-1;}#graph-div .section-5 line{stroke:#c4ffb7;stroke-width:3;}#graph-div .disabled,#graph-div .disabled circle,#graph-div .disabled text{fill:lightgray;}#graph-div .disabled text{fill:#efefef;}#graph-div .section-6 rect,#graph-div .section-6 path,#graph-div .section-6 circle,#graph-div .section-6 polygon,#graph-div .section-6 path{fill:#995a01;}#graph-div .section-6 text{fill:lightgrey;}#graph-div .node-icon-6{font-size:40px;color:lightgrey;}#graph-div .section-edge-6{stroke:#995a01;}#graph-div .edge-depth-6{stroke-width:-4;}#graph-div .section-6 line{stroke:#66a5fe;stroke-width:3;}#graph-div .disabled,#graph-div .disabled circle,#graph-div .disabled text{fill:lightgray;}#graph-div .disabled text{fill:#efefef;}#graph-div .section-7 rect,#graph-div .section-7 path,#graph-div .section-7 circle,#graph-div .section-7 polygon,#graph-div .section-7 path{fill:#154706;}#graph-div .section-7 text{fill:lightgrey;}#graph-div .node-icon-7{font-size:40px;color:lightgrey;}#graph-div .section-edge-7{stroke:#154706;}#graph-div .edge-depth-7{stroke-width:-7;}#graph-div .section-7 line{stroke:#eab8f9;stroke-width:3;}#graph-div .disabled,#graph-div .disabled circle,#graph-div .disabled text{fill:lightgray;}#graph-div .disabled text{fill:#efefef;}#graph-div .section-8 rect,#graph-div .section-8 path,#graph-div .section-8 circle,#graph-div .section-8 polygon,#graph-div .section-8 path{fill:#161722;}#graph-div .section-8 text{fill:lightgrey;}#graph-div .node-icon-8{font-size:40px;color:lightgrey;}#graph-div .section-edge-8{stroke:#161722;}#graph-div .edge-depth-8{stroke-width:-10;}#graph-div .section-8 line{stroke:#e9e8dd;stroke-width:3;}#graph-div .disabled,#graph-div .disabled circle,#graph-div .disabled text{fill:lightgray;}#graph-div .disabled text{fill:#efefef;}#graph-div .section-9 rect,#graph-div .section-9 path,#graph-div .section-9 circle,#graph-div .section-9 polygon,#graph-div .section-9 path{fill:#00296f;}#graph-div .section-9 text{fill:lightgrey;}#graph-div .node-icon-9{font-size:40px;color:lightgrey;}#graph-div .section-edge-9{stroke:#00296f;}#graph-div .edge-depth-9{stroke-width:-13;}#graph-div .section-9 line{stroke:#ffd690;stroke-width:3;}#graph-div .disabled,#graph-div .disabled circle,#graph-div .disabled text{fill:lightgray;}#graph-div .disabled text{fill:#efefef;}#graph-div .section-10 rect,#graph-div .section-10 path,#graph-div .section-10 circle,#graph-div .section-10 polygon,#graph-div .section-10 path{fill:#01629c;}#graph-div .section-10 text{fill:lightgrey;}#graph-div .node-icon-10{font-size:40px;color:lightgrey;}#graph-div .section-edge-10{stroke:#01629c;}#graph-div .edge-depth-10{stroke-width:-16;}#graph-div .section-10 line{stroke:#fe9d63;stroke-width:3;}#graph-div .disabled,#graph-div .disabled circle,#graph-div .disabled text{fill:lightgray;}#graph-div .disabled text{fill:#efefef;}#graph-div .section-root rect,#graph-div .section-root path,#graph-div .section-root circle,#graph-div .section-root polygon{fill:hsl(180, 1.5873015873%, 48.3529411765%);}#graph-div .section-root text{fill:undefined;}#graph-div .icon-container{height:100%;display:flex;justify-content:center;align-items:center;}#graph-div .edge{fill:none;}#graph-div :root{--mermaid-font-family:"trebuchet ms",verdana,arial,sans-serif;}</style><g></g><g></g><g class="mindmap-edges"><path class="edge section-edge-0 edge-depth-5" d="M 335.46263973755225,487.24732580618524 L 361.6699187873422,515.6512549535971 L387.8771978371322,544.055184101009"></path><path class="edge section-edge-0 edge-depth-5" d="M 317.16083931528226,488.82864483613355 L 298.21749579707443,518.2002647632161 L279.2741522788666,547.5718846902986"></path><path class="edge section-edge-0 edge-depth-5" d="M 310.5170443504629,473.62814964289413 L 264.8212062075988,465.60220780784596 L219.12536806473466,457.5762659727978"></path><path class="edge section-edge-0 edge-depth-7" d="M 259.46080013260007,299.0136154742186 L 184.20867583919238,295.5237037865852 L108.95655154578472,292.0337920989518"></path><path class="edge section-edge-0 edge-depth-9" d="M 227.74146936807355,118.56582761770113 L 220.7854442526645,85.9449551507245 L213.82941913725543,53.32408268374786"></path><path class="edge section-edge-0 edge-depth-8" d="M 290.11336361436406,199.87074095050463 L 265.4748683750718,172.15840894394765 L240.83637313577955,144.44607693739067"></path><path class="edge section-edge-0 edge-depth-7" d="M 278.6125571551994,285.2991776458931 L 287.2623583759624,255.39466312811675 L295.91215959672536,225.4901486103404"></path><path class="edge section-edge-0 edge-depth-6" d="M 313.151463529956,372.6897197325177 L 297.3121760566681,342.82490850000784 L281.47288858338015,312.9600972674979"></path><path class="edge section-edge-0 edge-depth-5" d="M 324.4430394677742,461.2469861013692 L 322.7352769165855,431.0821547116815 L321.0275143653968,400.91732332199376"></path><path class="edge section-edge-0 edge-depth-4" d="M 501.95723028231384,448.41223870942895 L 421.03282731072494,461.1513362252209 L340.10842433913604,473.8904337410129"></path><path class="edge section-edge-0 edge-depth-5" d="M 516.5708801534676,341.4458905442479 L 557.6230805464558,308.5465991399427 L598.675280939444,275.6473077356375"></path><path class="edge section-edge-0 edge-depth-4" d="M 514.9138926869811,431.19554243156045 L 510.8203057501547,398.45299131459376 L506.7267188133283,365.71044019762707"></path><path class="edge section-edge-0 edge-depth-3" d="M 686.2496780781333,436.7763989097241 L 609.0009429110496,441.0169422139646 L531.7522077439659,445.25748551820516"></path><path class="edge section-edge-0 edge-depth-2" d="M 817.8191727570115,443.0548898500857 L 767.0092802355109,439.96047259984516 L716.1993877140103,436.8660553496046"></path><path class="edge section-edge-0 edge-depth-1" d="M 946.6291815112949,428.43400498376286 L 897.1414509582072,435.18641562317976 L847.6537204051195,441.93882626259665"></path><path class="edge section-edge-0 edge-depth-1" d="M 959.5934640602104,411.5266682599713 L 955.660838272275,380.696809742238 L951.7282124843398,349.86695122450453"></path><path class="edge section-edge-0 edge-depth-1" d="M 976.4049331342462,424.7971867082167 L 1034.2667814470715,418.554849792765 L1092.128629759897,412.31251287731334"></path><path class="edge section-edge-0 edge-depth-0" d="M 992.1269249507948,500.31856201516064 L 979.6809162251393,470.2907688327617 L967.2349074994838,440.2629756503628"></path></g><g class="mindmap-nodes"><g transform="translate(946.987550156017, 495.52152854823225)" class="mindmap-node section--1 section-root"><g transform="translate(50.8828125, 18.65390625)"><circle r="50.8828125" class="node-bkg node-circle" id="node-0"></circle></g><g transform="translate(50.8828125, 5)"><text text-anchor="middle" dominant-baseline="middle" alignment-baseline="middle" dy="1em"><tspan dy="1em" x="0">chartifi:   cfi</tspan></text></g></g><g transform="translate(913.6867822942615, 407.75219661729125)" class="mindmap-node section-0"><g transform="translate(47.8046875, 18.65390625)"><circle r="47.8046875" class="node-bkg node-circle" id="node-1"></circle></g><g transform="translate(47.8046875, 5)"><text text-anchor="middle" dominant-baseline="middle" alignment-baseline="middle" dy="1em"><tspan dy="1em" x="0">commands</tspan></text></g></g><g transform="translate(805.4750258721529, 425.3128221290683)" class="mindmap-node section-0"><g><path d="M0 32.3078125 v-27.307812499999997 q0,-5 5,-5 h44.6328125 q5,0 5,5 v32.3078125 H0 Z" class="node-bkg node-no-border" id="node-2"></path><line y2="37.3078125" x2="54.6328125" y1="37.3078125" x1="0" class="node-line-0"></line></g><g transform="translate(27.31640625, 5)"><text text-anchor="middle" dominant-baseline="middle" alignment-baseline="middle" dy="1em"><tspan dy="1em" x="0">yuml</tspan></text></g></g><g transform="translate(653.422440848869, 417.30031057062206)" class="mindmap-node section-0"><g transform="translate(47.8046875, 18.65390625)"><circle r="47.8046875" class="node-bkg node-circle" id="node-3"></circle></g><g transform="translate(47.8046875, 5)"><text text-anchor="middle" dominant-baseline="middle" alignment-baseline="middle" dy="1em"><tspan dy="1em" x="0">commands</tspan></text></g></g><g transform="translate(431.61850747323024, 422.42576135730724)" class="mindmap-node section-0"><g><rect width="170.3125" height="47.3078125" class="node-bkg node-rect" id="node-4"></rect></g><g transform="translate(85.15625, 10)"><text text-anchor="middle" dominant-baseline="middle" alignment-baseline="middle" dy="1em"><tspan dy="1em" x="0">uml-class-diagram</tspan></text></g></g><g transform="translate(277.48620964821964, 457.56909859313464)" class="mindmap-node section-0"><g transform="translate(47.8046875, 18.65390625)"><circle r="47.8046875" class="node-bkg node-circle" id="node-5"></circle></g><g transform="translate(47.8046875, 5)"><text text-anchor="middle" dominant-baseline="middle" alignment-baseline="middle" dy="1em"><tspan dy="1em" x="0">commands</tspan></text></g></g><g transform="translate(372.2794091764648, 536.4255988140596)" class="mindmap-node section-0"><g><path d="M0 32.3078125 v-27.307812499999997 q0,-5 5,-5 h41.5390625 q5,0 5,5 v32.3078125 H0 Z" class="node-bkg node-no-border" id="node-6"></path><line y2="37.3078125" x2="51.5390625" y1="37.3078125" x1="0" class="node-line-0"></line></g><g transform="translate(25.76953125, 5)"><text text-anchor="middle" dominant-baseline="middle" alignment-baseline="middle" dy="1em"><tspan dy="1em" x="0">jpeg</tspan></text></g></g><g transform="translate(248.30034444592923, 541.5236184332975)" class="mindmap-node section-0"><g><path d="M0 32.3078125 v-27.307812499999997 q0,-5 5,-5 h35.6875 q5,0 5,5 v32.3078125 H0 Z" class="node-bkg node-no-border" id="node-7"></path><line y2="37.3078125" x2="45.6875" y1="37.3078125" x1="0" class="node-line-0"></line></g><g transform="translate(22.84375, 5)"><text text-anchor="middle" dominant-baseline="middle" alignment-baseline="middle" dy="1em"><tspan dy="1em" x="0">png</tspan></text></g></g><g transform="translate(183.1796402669779, 436.3275045225573)" class="mindmap-node section-0"><g><path d="M0 32.3078125 v-27.307812499999997 q0,-5 5,-5 h32.34375 q5,0 5,5 v32.3078125 H0 Z" class="node-bkg node-no-border" id="node-8"></path><line y2="37.3078125" x2="42.34375" y1="37.3078125" x1="0" class="node-line-0"></line></g><g transform="translate(21.171875, 5)"><text text-anchor="middle" dominant-baseline="middle" alignment-baseline="middle" dy="1em"><tspan dy="1em" x="0">svg</tspan></text></g></g><g transform="translate(300.3398129349514, 367.28739833022837)" class="mindmap-node section-0"><g><path d="M0 32.3078125 v-27.307812499999997 q0,-5 5,-5 h29.6796875 q5,0 5,5 v32.3078125 H0 Z" class="node-bkg node-no-border" id="node-9"></path><line y2="37.3078125" x2="39.6796875" y1="37.3078125" x1="0" class="node-line-0"></line></g><g transform="translate(19.83984375, 5)"><text text-anchor="middle" dominant-baseline="middle" alignment-baseline="middle" dy="1em"><tspan dy="1em" x="0">url</tspan></text></g></g><g transform="translate(226.64000792838476, 281.05460616978723)" class="mindmap-node section-0"><g transform="translate(47.8046875, 18.65390625)"><circle r="47.8046875" class="node-bkg node-circle" id="node-10"></circle></g><g transform="translate(47.8046875, 5)"><text text-anchor="middle" dominant-baseline="middle" alignment-baseline="middle" dy="1em"><tspan dy="1em" x="0">commands</tspan></text></g></g><g transform="translate(15, 267.6849889033832)" class="mindmap-node section-0"><g><rect width="157.9453125" height="47.3078125" class="node-bkg node-rect" id="node-11"></rect></g><g transform="translate(78.97265625, 10)"><text text-anchor="middle" dominant-baseline="middle" alignment-baseline="middle" dy="1em"><tspan dy="1em" x="0">verbose:   default</tspan></text></g></g><g transform="translate(263.16205257354, 192.4269075864463)" class="mindmap-node section-0"><g><path d="M0 32.3078125 v-27.307812499999997 q0,-5 5,-5 h63.8359375 q5,0 5,5 v32.3078125 H0 Z" class="node-bkg node-no-border" id="node-12"></path><line y2="37.3078125" x2="73.8359375" y1="37.3078125" x1="0" class="node-line-0"></line></g><g transform="translate(36.91796875, 5)"><text text-anchor="middle" dominant-baseline="middle" alignment-baseline="middle" dy="1em"><tspan dy="1em" x="0">shorten</tspan></text></g></g><g transform="translate(194.76424667660365, 114.58209780144898)" class="mindmap-node section-0"><g transform="translate(36.10546875, 18.65390625)"><circle r="36.10546875" class="node-bkg node-circle" id="node-13"></circle></g><g transform="translate(36.10546875, 5)"><text text-anchor="middle" dominant-baseline="middle" alignment-baseline="middle" dy="1em"><tspan dy="1em" x="0">options</tspan></text></g></g><g transform="translate(119.53711057872533, 15)" class="mindmap-node section-0"><g><rect width="182.328125" height="47.3078125" class="node-bkg node-rect" id="node-14"></rect></g><g transform="translate(91.1640625, 10)"><text text-anchor="middle" dominant-baseline="middle" alignment-baseline="middle" dy="1em"><tspan dy="1em" x="0">--bitly-access-token</tspan></text></g></g><g transform="translate(454.0064790270792, 332.1724087718803)" class="mindmap-node section-0"><g transform="translate(50.859375, 18.65390625)"><circle r="50.859375" class="node-bkg node-circle" id="node-15"></circle></g><g transform="translate(50.859375, 5)"><text text-anchor="middle" dominant-baseline="middle" alignment-baseline="middle" dy="1em"><tspan dy="1em" x="0">parameters</tspan></text></g></g><g transform="translate(502.5873383158323, 233.81297777094457)" class="mindmap-node section-0"><g><rect width="215.5859375" height="64.90781097412109" class="node-bkg node-rect" id="node-16"></rect></g><g transform="translate(107.79296875, 10)"><text text-anchor="middle" dominant-baseline="middle" alignment-baseline="middle" dy="1em"><tspan dy="1em" x="0">java-source-path:   file   or</tspan><tspan dy="1.1em" x="0">directory</tspan></text></g></g><g transform="translate(908.1348942502887, 316.33361036718463)" class="mindmap-node section-0"><g><path d="M0 32.3078125 v-27.307812499999997 q0,-5 5,-5 h73.390625 q5,0 5,5 v32.3078125 H0 Z" class="node-bkg node-no-border" id="node-17"></path><line y2="37.3078125" x2="83.390625" y1="37.3078125" x1="0" class="node-line-0"></line></g><g transform="translate(41.6953125, 5)"><text text-anchor="middle" dominant-baseline="middle" alignment-baseline="middle" dy="1em"><tspan dy="1em" x="0">mermaid</tspan></text></g></g><g transform="translate(1065.1084993498816, 392.04969046823885)" class="mindmap-node section-0"><g><path d="M0 32.3078125 v-27.307812499999997 q0,-5 5,-5 h73.8671875 q5,0 5,5 v32.3078125 H0 Z" class="node-bkg node-no-border" id="node-18"></path><line y2="37.3078125" x2="83.8671875" y1="37.3078125" x1="0" class="node-line-0"></line></g><g transform="translate(41.93359375, 5)"><text text-anchor="middle" dominant-baseline="middle" alignment-baseline="middle" dy="1em"><tspan dy="1em" x="0">plantuml</tspan></text></g></g></g></g><defs><style id="svg-pan-zoom-controls-styles" type="text/css">.svg-pan-zoom-control { cursor: pointer; fill: black; fill-opacity: 0.333; } .svg-pan-zoom-control:hover { fill-opacity: 0.8; } .svg-pan-zoom-control-background { fill: white; fill-opacity: 0.5; } .svg-pan-zoom-control-background { fill-opacity: 0.8; }</style></defs><g id="svg-pan-zoom-controls" transform="translate(931 756) scale(0.75)" class="svg-pan-zoom-control"><g id="svg-pan-zoom-zoom-in" transform="translate(30.5 5) scale(0.015)" class="svg-pan-zoom-control"><rect x="0" y="0" width="1500" height="1400" class="svg-pan-zoom-control-background"></rect><path d="M1280 576v128q0 26 -19 45t-45 19h-320v320q0 26 -19 45t-45 19h-128q-26 0 -45 -19t-19 -45v-320h-320q-26 0 -45 -19t-19 -45v-128q0 -26 19 -45t45 -19h320v-320q0 -26 19 -45t45 -19h128q26 0 45 19t19 45v320h320q26 0 45 19t19 45zM1536 1120v-960 q0 -119 -84.5 -203.5t-203.5 -84.5h-960q-119 0 -203.5 84.5t-84.5 203.5v960q0 119 84.5 203.5t203.5 84.5h960q119 0 203.5 -84.5t84.5 -203.5z" class="svg-pan-zoom-control-element"></path></g><g id="svg-pan-zoom-reset-pan-zoom" transform="translate(5 35) scale(0.4)" class="svg-pan-zoom-control"><rect x="2" y="2" width="182" height="58" class="svg-pan-zoom-control-background"></rect><path d="M33.051,20.632c-0.742-0.406-1.854-0.609-3.338-0.609h-7.969v9.281h7.769c1.543,0,2.701-0.188,3.473-0.562c1.365-0.656,2.048-1.953,2.048-3.891C35.032,22.757,34.372,21.351,33.051,20.632z" class="svg-pan-zoom-control-element"></path><path d="M170.231,0.5H15.847C7.102,0.5,0.5,5.708,0.5,11.84v38.861C0.5,56.833,7.102,61.5,15.847,61.5h154.384c8.745,0,15.269-4.667,15.269-10.798V11.84C185.5,5.708,178.976,0.5,170.231,0.5z M42.837,48.569h-7.969c-0.219-0.766-0.375-1.383-0.469-1.852c-0.188-0.969-0.289-1.961-0.305-2.977l-0.047-3.211c-0.03-2.203-0.41-3.672-1.142-4.406c-0.732-0.734-2.103-1.102-4.113-1.102h-7.05v13.547h-7.055V14.022h16.524c2.361,0.047,4.178,0.344,5.45,0.891c1.272,0.547,2.351,1.352,3.234,2.414c0.731,0.875,1.31,1.844,1.737,2.906s0.64,2.273,0.64,3.633c0,1.641-0.414,3.254-1.242,4.84s-2.195,2.707-4.102,3.363c1.594,0.641,2.723,1.551,3.387,2.73s0.996,2.98,0.996,5.402v2.32c0,1.578,0.063,2.648,0.19,3.211c0.19,0.891,0.635,1.547,1.333,1.969V48.569z M75.579,48.569h-26.18V14.022h25.336v6.117H56.454v7.336h16.781v6H56.454v8.883h19.125V48.569z M104.497,46.331c-2.44,2.086-5.887,3.129-10.34,3.129c-4.548,0-8.125-1.027-10.731-3.082s-3.909-4.879-3.909-8.473h6.891c0.224,1.578,0.662,2.758,1.316,3.539c1.196,1.422,3.246,2.133,6.15,2.133c1.739,0,3.151-0.188,4.236-0.562c2.058-0.719,3.087-2.055,3.087-4.008c0-1.141-0.504-2.023-1.512-2.648c-1.008-0.609-2.607-1.148-4.796-1.617l-3.74-0.82c-3.676-0.812-6.201-1.695-7.576-2.648c-2.328-1.594-3.492-4.086-3.492-7.477c0-3.094,1.139-5.664,3.417-7.711s5.623-3.07,10.036-3.07c3.685,0,6.829,0.965,9.431,2.895c2.602,1.93,3.966,4.73,4.093,8.402h-6.938c-0.128-2.078-1.057-3.555-2.787-4.43c-1.154-0.578-2.587-0.867-4.301-0.867c-1.907,0-3.428,0.375-4.565,1.125c-1.138,0.75-1.706,1.797-1.706,3.141c0,1.234,0.561,2.156,1.682,2.766c0.721,0.406,2.25,0.883,4.589,1.43l6.063,1.43c2.657,0.625,4.648,1.461,5.975,2.508c2.059,1.625,3.089,3.977,3.089,7.055C108.157,41.624,106.937,44.245,104.497,46.331z M139.61,48.569h-26.18V14.022h25.336v6.117h-18.281v7.336h16.781v6h-16.781v8.883h19.125V48.569z M170.337,20.14h-10.336v28.43h-7.266V20.14h-10.383v-6.117h27.984V20.14z" class="svg-pan-zoom-control-element"></path></g><g id="svg-pan-zoom-zoom-out" transform="translate(30.5 70) scale(0.015)" class="svg-pan-zoom-control"><rect x="0" y="0" width="1500" height="1400" class="svg-pan-zoom-control-background"></rect><path d="M1280 576v128q0 26 -19 45t-45 19h-896q-26 0 -45 -19t-19 -45v-128q0 -26 19 -45t45 -19h896q26 0 45 19t19 45zM1536 1120v-960q0 -119 -84.5 -203.5t-203.5 -84.5h-960q-119 0 -203.5 84.5t-84.5 203.5v960q0 119 84.5 203.5t203.5 84.5h960q119 0 203.5 -84.5 t84.5 -203.5z" class="svg-pan-zoom-control-element"></path></g></g></svg>